# xmcd CD database file
#
# Track frame offsets:
#	150
#	18332
#	34256
#	49498
#	70755
#	88345
#	106657
#	119343
#	138450
#	150843
#	169273
#	185724
#	206312
#	225653
#	242852
#	256837
#
# Disc length: 3631 seconds
#
# Revision: 0
# Processed by: cddbd v1.5.2PL0 Copyright (c) Steve Scherf et al.
# Submitted via: CDex 1.51
#
DISCID=d70e2d10
DTITLE=Various Artist - Country's Got More Heart (Disk 2)
DYEAR=2007
DGENRE=Country
TTITLE0=Perfect - Sara Evans
TTITLE1=In A Real Love - Phil Vassar
TTITLE2=We Danced Anyway - Deana Carter
TTITLE3=He Didn't Have To Be - Brad Paisley
TTITLE4=Your Love Amazes Me - John Berry
TTITLE5=I Breath In, I Breath Out - Chris Cagle
TTITLE6=Blue - LeAnn Rimes
TTITLE7=I'm Already There - Lonestar
TTITLE8=When You Walk In The Room - Pam Tillis
TTITLE9=How Your Love Makes Me Feel - Diamond Rio
TTITLE10=In A Different Light - Dpug Stone
TTITLE11=Lonely To Long - Patty Loveless
TTITLE12=Best Of Intentions - Travis Tritt
TTITLE13=Complicated - Carolyn Dawn Johnson
TTITLE14=Forever Togeather - Randy Travis
TTITLE15=Amen Kind Of Love - Daryle Singletary
EXTD=YEAR: 2007
EXTT0=
EXTT1=
EXTT2=
EXTT3=
EXTT4=
EXTT5=
EXTT6=
EXTT7=
EXTT8=
EXTT9=
EXTT10=
EXTT11=
EXTT12=
EXTT13=
EXTT14=
EXTT15=
PLAYORDER=
